<mxfile host="65bd71144e">
    <diagram id="pf5zmlZn-gR_jVcWXcbg" name="PÃ¡gina-1">
        <mxGraphModel dx="1261" dy="189" grid="1" gridSize="11" guides="1" tooltips="1" connect="1" arrows="1" fold="1" page="1" pageScale="1" pageWidth="827" pageHeight="1169" background="#ffffff" math="0" shadow="0">
            <root>
                <mxCell id="0"/>
                <mxCell id="1" parent="0"/>
                <mxCell id="112" value="" style="endArrow=classic;html=1;fontSize=14;fontColor=#000000;" parent="1" edge="1">
                    <mxGeometry width="50" height="50" relative="1" as="geometry">
                        <mxPoint x="858" y="1150" as="sourcePoint"/>
                        <mxPoint x="908" y="1100" as="targetPoint"/>
                    </mxGeometry>
                </mxCell>
                <mxCell id="115" value="" style="group" parent="1" vertex="1" connectable="0">
                    <mxGeometry x="-396" y="44" width="176" height="99" as="geometry"/>
                </mxCell>
                <mxCell id="111" value="&lt;font color=&quot;#000000&quot;&gt;Star&lt;/font&gt;" style="strokeWidth=2;html=1;shape=mxgraph.flowchart.start_1;whiteSpace=wrap;fontSize=14;fillColor=#ffcccc;strokeColor=#36393d;" parent="115" vertex="1">
                    <mxGeometry width="176" height="49.5" as="geometry"/>
                </mxCell>
                <mxCell id="122" value="" style="edgeStyle=none;html=1;fillColor=#6a00ff;strokeColor=#3700CC;" parent="1" source="120" target="121" edge="1">
                    <mxGeometry relative="1" as="geometry"/>
                </mxCell>
                <mxCell id="120" value="&lt;span style=&quot;background-color: rgb(0, 0, 0);&quot;&gt;mdLinks(path/options)&lt;/span&gt;" style="shape=trapezoid;perimeter=trapezoidPerimeter;whiteSpace=wrap;html=1;fixedSize=1;fontSize=14;fillColor=#bac8d3;strokeColor=#23445d;" parent="1" vertex="1">
                    <mxGeometry x="-393" y="132" width="170" height="60" as="geometry"/>
                </mxCell>
                <mxCell id="126" value="&lt;span style=&quot;background-color: rgb(0, 204, 0);&quot;&gt;yes&amp;nbsp;&lt;/span&gt;" style="edgeStyle=none;html=1;strokeColor=#5411F0;endArrow=classic;endFill=1;" parent="1" source="121" target="125" edge="1">
                    <mxGeometry relative="1" as="geometry"/>
                </mxCell>
                <mxCell id="133" value="&lt;span style=&quot;background-color: rgb(255, 0, 0);&quot;&gt;no&lt;/span&gt;" style="edgeStyle=none;html=1;labelBackgroundColor=#00CC00;strokeColor=#5411F0;endArrow=classic;endFill=1;" parent="1" source="121" target="132" edge="1">
                    <mxGeometry relative="1" as="geometry"/>
                </mxCell>
                <mxCell id="121" value="&lt;span style=&quot;color: rgb(255, 255, 255); background-color: rgb(0, 0, 0);&quot; class=&quot;WdYUQQ&quot;&gt;is it a valid option?&lt;/span&gt;" style="rhombus;whiteSpace=wrap;html=1;fontSize=14;fillColor=#e6d0de;gradientColor=#d5739d;strokeColor=#996185;" parent="1" vertex="1">
                    <mxGeometry x="-393" y="220" width="170.5" height="132" as="geometry"/>
                </mxCell>
                <mxCell id="131" value="" style="edgeStyle=none;html=1;strokeColor=#5411F0;endArrow=classic;endFill=1;" parent="1" source="125" target="130" edge="1">
                    <mxGeometry relative="1" as="geometry"/>
                </mxCell>
                <mxCell id="135" value="no" style="edgeStyle=none;html=1;labelBackgroundColor=#FF0000;strokeColor=#5411F0;endArrow=classic;endFill=1;" parent="1" source="125" target="134" edge="1">
                    <mxGeometry relative="1" as="geometry"/>
                </mxCell>
                <mxCell id="125" value="&lt;span style=&quot;background-color: rgb(0, 0, 0);&quot;&gt;&lt;span style=&quot;color: rgb(255, 255, 255);&quot; class=&quot;WdYUQQ&quot;&gt;does the&lt;/span&gt;&lt;span style=&quot;color: rgb(255, 255, 255);&quot; class=&quot;WdYUQQ white-space-prewrap&quot;&gt;  &lt;/span&gt;&lt;span style=&quot;color: rgb(255, 255, 255);&quot; class=&quot;WdYUQQ&quot;&gt;path exists?&lt;/span&gt;&lt;/span&gt;" style="rhombus;whiteSpace=wrap;html=1;fontSize=14;fillColor=#e6d0de;gradientColor=#d5739d;strokeColor=#996185;" parent="1" vertex="1">
                    <mxGeometry x="-393" y="396" width="169.25" height="132" as="geometry"/>
                </mxCell>
                <mxCell id="129" value="" style="edgeStyle=none;html=1;strokeColor=#5411F0;endArrow=classic;endFill=1;" parent="1" source="111" target="120" edge="1">
                    <mxGeometry relative="1" as="geometry"/>
                </mxCell>
                <mxCell id="137" value="no" style="edgeStyle=none;html=1;labelBackgroundColor=#FF0000;strokeColor=#5411F0;endArrow=classic;endFill=1;" parent="1" source="130" target="136" edge="1">
                    <mxGeometry relative="1" as="geometry"/>
                </mxCell>
                <mxCell id="140" value="" style="edgeStyle=none;html=1;strokeColor=#5411F0;" parent="1" source="130" target="139" edge="1">
                    <mxGeometry relative="1" as="geometry"/>
                </mxCell>
                <mxCell id="130" value="&lt;span style=&quot;background-color: rgb(0, 0, 0);&quot;&gt;&lt;span style=&quot;color: rgb(255, 255, 255);&quot; class=&quot;WdYUQQ&quot;&gt;is&lt;/span&gt;&lt;span style=&quot;color: rgb(255, 255, 255);&quot; class=&quot;WdYUQQ white-space-prewrap&quot;&gt;  &lt;/span&gt;&lt;span style=&quot;color: rgb(255, 255, 255);&quot; class=&quot;WdYUQQ&quot;&gt;paht Absolute?&lt;/span&gt;&lt;/span&gt;" style="rhombus;whiteSpace=wrap;html=1;fontSize=14;fillColor=#e6d0de;gradientColor=#d5739d;strokeColor=#996185;" parent="1" vertex="1">
                    <mxGeometry x="-396" y="572" width="176" height="132" as="geometry"/>
                </mxCell>
                <mxCell id="168" style="edgeStyle=none;html=1;entryX=0;entryY=0.5;entryDx=0;entryDy=0;entryPerimeter=0;strokeColor=#9999FF;fontSize=10;" parent="1" source="132" target="162" edge="1">
                    <mxGeometry relative="1" as="geometry">
                        <Array as="points">
                            <mxPoint x="-792" y="286"/>
                            <mxPoint x="-792" y="704"/>
                            <mxPoint x="-792" y="1067"/>
                            <mxPoint x="-792" y="1452"/>
                            <mxPoint x="-792" y="1628"/>
                            <mxPoint x="-792" y="1782"/>
                        </Array>
                    </mxGeometry>
                </mxCell>
                <mxCell id="132" value="" style="whiteSpace=wrap;html=1;fontSize=14;fillColor=#fff2cc;gradientColor=#ffd966;strokeColor=#d6b656;" parent="1" vertex="1">
                    <mxGeometry x="-638" y="256" width="120" height="60" as="geometry"/>
                </mxCell>
                <mxCell id="169" style="edgeStyle=none;html=1;strokeColor=#9999FF;fontSize=10;" parent="1" source="134" edge="1">
                    <mxGeometry relative="1" as="geometry">
                        <mxPoint x="-792" y="462" as="targetPoint"/>
                    </mxGeometry>
                </mxCell>
                <mxCell id="134" value="" style="whiteSpace=wrap;html=1;fontSize=14;fillColor=#fff2cc;strokeColor=#d6b656;gradientColor=#ffd966;" parent="1" vertex="1">
                    <mxGeometry x="-637.995" y="432" width="120" height="60" as="geometry"/>
                </mxCell>
                <mxCell id="138" style="edgeStyle=none;html=1;labelBackgroundColor=#FF0000;strokeColor=#5411F0;endArrow=classic;endFill=1;entryX=0.661;entryY=0.12;entryDx=0;entryDy=0;entryPerimeter=0;" parent="1" source="136" target="130" edge="1">
                    <mxGeometry relative="1" as="geometry">
                        <mxPoint x="-242" y="715" as="targetPoint"/>
                        <Array as="points">
                            <mxPoint x="-165" y="572"/>
                        </Array>
                    </mxGeometry>
                </mxCell>
                <mxCell id="136" value="&lt;span style=&quot;color: rgb(255, 255, 255); background-color: rgb(0, 0, 0);&quot; class=&quot;WdYUQQ&quot;&gt;convert to absolute&lt;/span&gt;" style="whiteSpace=wrap;html=1;fontSize=14;fillColor=#d5e8d4;strokeColor=#82b366;gradientColor=#97d077;" parent="1" vertex="1">
                    <mxGeometry x="-99" y="608" width="120" height="60" as="geometry"/>
                </mxCell>
                <mxCell id="142" value="" style="edgeStyle=none;html=1;strokeColor=#5411F0;entryX=0;entryY=0.5;entryDx=0;entryDy=0;" parent="1" source="139" target="141" edge="1">
                    <mxGeometry relative="1" as="geometry"/>
                </mxCell>
                <mxCell id="143" value="&lt;span style=&quot;background-color: rgb(255, 0, 0);&quot;&gt;no&lt;/span&gt;" style="edgeLabel;html=1;align=center;verticalAlign=middle;resizable=0;points=[];" parent="142" vertex="1" connectable="0">
                    <mxGeometry x="-0.2028" y="-1" relative="1" as="geometry">
                        <mxPoint as="offset"/>
                    </mxGeometry>
                </mxCell>
                <mxCell id="147" value="" style="edgeStyle=none;html=1;strokeColor=#9999FF;" parent="1" source="139" target="146" edge="1">
                    <mxGeometry relative="1" as="geometry"/>
                </mxCell>
                <mxCell id="139" value="&lt;span style=&quot;color: rgb(255, 255, 255); background-color: rgb(0, 0, 0);&quot; class=&quot;WdYUQQ&quot;&gt;is a file?&lt;/span&gt;" style="rhombus;whiteSpace=wrap;html=1;fontSize=14;fillColor=#e6d0de;strokeColor=#996185;gradientColor=#d5739d;" parent="1" vertex="1">
                    <mxGeometry x="-388.75" y="748" width="160.75" height="136.5" as="geometry"/>
                </mxCell>
                <mxCell id="145" style="edgeStyle=none;html=1;exitX=0.25;exitY=0;exitDx=0;exitDy=0;entryX=0.663;entryY=0.173;entryDx=0;entryDy=0;entryPerimeter=0;strokeColor=#5411F0;" parent="1" source="141" target="139" edge="1">
                    <mxGeometry relative="1" as="geometry">
                        <Array as="points">
                            <mxPoint x="-165" y="737"/>
                        </Array>
                    </mxGeometry>
                </mxCell>
                <mxCell id="141" value="&lt;span style=&quot;color: rgb(255, 255, 255); background-color: rgb(0, 0, 0);&quot; class=&quot;WdYUQQ&quot;&gt;for each element of the director&lt;/span&gt;" style="whiteSpace=wrap;html=1;fontSize=14;fillColor=#d5e8d4;strokeColor=#82b366;gradientColor=#97d077;" parent="1" vertex="1">
                    <mxGeometry x="-88" y="792" width="132" height="60" as="geometry"/>
                </mxCell>
                <mxCell id="149" value="" style="edgeStyle=none;html=1;strokeColor=#9999FF;" parent="1" source="146" target="148" edge="1">
                    <mxGeometry relative="1" as="geometry"/>
                </mxCell>
                <mxCell id="151" value="" style="edgeStyle=none;html=1;strokeColor=#9999FF;" parent="1" source="146" target="150" edge="1">
                    <mxGeometry relative="1" as="geometry"/>
                </mxCell>
                <mxCell id="146" value="&lt;span style=&quot;color: rgb(255, 255, 255); background-color: rgb(0, 0, 0);&quot; class=&quot;WdYUQQ&quot;&gt;do they have a .md extension?&lt;/span&gt;" style="rhombus;whiteSpace=wrap;html=1;fontSize=14;fillColor=#e6d0de;strokeColor=#996185;gradientColor=#d5739d;" parent="1" vertex="1">
                    <mxGeometry x="-388.75" y="964.5" width="160.75" height="136.5" as="geometry"/>
                </mxCell>
                <mxCell id="153" value="" style="edgeStyle=none;html=1;strokeColor=#9999FF;" parent="1" source="148" target="152" edge="1">
                    <mxGeometry relative="1" as="geometry"/>
                </mxCell>
                <mxCell id="148" value="&lt;span style=&quot;color: rgb(255, 255, 255); background-color: rgb(0, 0, 0);&quot; class=&quot;WdYUQQ&quot;&gt;analyze the file/text search for link&lt;/span&gt;" style="whiteSpace=wrap;html=1;fontSize=14;fillColor=#d5e8d4;strokeColor=#82b366;gradientColor=#97d077;" parent="1" vertex="1">
                    <mxGeometry x="-396" y="1144" width="176.01" height="44" as="geometry"/>
                </mxCell>
                <mxCell id="170" style="edgeStyle=none;html=1;strokeColor=#9999FF;fontSize=10;" parent="1" source="150" edge="1">
                    <mxGeometry relative="1" as="geometry">
                        <mxPoint x="-792" y="1032.75" as="targetPoint"/>
                    </mxGeometry>
                </mxCell>
                <mxCell id="150" value="" style="whiteSpace=wrap;html=1;fontSize=14;fillColor=#fff2cc;strokeColor=#d6b656;gradientColor=#ffd966;" parent="1" vertex="1">
                    <mxGeometry x="-609.125" y="1002.75" width="120" height="60" as="geometry"/>
                </mxCell>
                <mxCell id="155" value="" style="edgeStyle=none;html=1;strokeColor=#9999FF;" parent="1" source="152" target="154" edge="1">
                    <mxGeometry relative="1" as="geometry"/>
                </mxCell>
                <mxCell id="152" value="&lt;span style=&quot;background-color: rgb(0, 0, 0);&quot;&gt;&lt;span style=&quot;color: rgb(255, 255, 255);&quot; class=&quot;WdYUQQ&quot;&gt;does it contain&lt;/span&gt;&lt;span style=&quot;color: rgb(255, 255, 255);&quot; class=&quot;WdYUQQ white-space-prewrap&quot;&gt;  &lt;/span&gt;&lt;span style=&quot;color: rgb(255, 255, 255);&quot; class=&quot;WdYUQQ&quot;&gt;link?&lt;/span&gt;&lt;/span&gt;" style="rhombus;whiteSpace=wrap;html=1;fontSize=14;fillColor=#e6d0de;strokeColor=#996185;gradientColor=#d5739d;" parent="1" vertex="1">
                    <mxGeometry x="-393" y="1232" width="172" height="114" as="geometry"/>
                </mxCell>
                <mxCell id="157" value="" style="edgeStyle=none;html=1;strokeColor=#9999FF;" parent="1" source="154" target="156" edge="1">
                    <mxGeometry relative="1" as="geometry"/>
                </mxCell>
                <mxCell id="154" value="&lt;span style=&quot;color: rgb(255, 255, 255); background-color: rgb(0, 0, 0);&quot; class=&quot;WdYUQQ&quot;&gt;array link=[]&lt;/span&gt;" style="whiteSpace=wrap;html=1;fontSize=14;fillColor=#d5e8d4;strokeColor=#82b366;gradientColor=#97d077;" parent="1" vertex="1">
                    <mxGeometry x="-401.87" y="1397" width="187" height="44" as="geometry"/>
                </mxCell>
                <mxCell id="159" value="" style="edgeStyle=none;html=1;strokeColor=#9999FF;" parent="1" source="156" target="158" edge="1">
                    <mxGeometry relative="1" as="geometry"/>
                </mxCell>
                <mxCell id="171" value="Text" style="edgeLabel;html=1;align=center;verticalAlign=middle;resizable=0;points=[];fontSize=10;" parent="159" vertex="1" connectable="0">
                    <mxGeometry x="-0.2407" y="-1" relative="1" as="geometry">
                        <mxPoint as="offset"/>
                    </mxGeometry>
                </mxCell>
                <mxCell id="161" value="" style="edgeStyle=none;html=1;strokeColor=#9999FF;" parent="1" source="156" target="160" edge="1">
                    <mxGeometry relative="1" as="geometry"/>
                </mxCell>
                <mxCell id="172" value="false" style="edgeLabel;html=1;align=center;verticalAlign=middle;resizable=0;points=[];fontSize=10;" parent="161" vertex="1" connectable="0">
                    <mxGeometry x="-0.2481" y="1" relative="1" as="geometry">
                        <mxPoint as="offset"/>
                    </mxGeometry>
                </mxCell>
                <mxCell id="166" style="edgeStyle=none;html=1;entryX=1;entryY=0.5;entryDx=0;entryDy=0;entryPerimeter=0;strokeColor=#9999FF;fontSize=10;" parent="1" source="156" target="162" edge="1">
                    <mxGeometry relative="1" as="geometry">
                        <Array as="points">
                            <mxPoint x="-308" y="1782"/>
                        </Array>
                    </mxGeometry>
                </mxCell>
                <mxCell id="156" value="&lt;span style=&quot;color: rgb(255, 255, 255); background-color: rgb(0, 0, 0);&quot; class=&quot;WdYUQQ&quot;&gt;validate&lt;/span&gt;" style="rhombus;whiteSpace=wrap;html=1;fontSize=14;fillColor=#e6d0de;strokeColor=#996185;gradientColor=#d5739d;" parent="1" vertex="1">
                    <mxGeometry x="-382.87" y="1496" width="149" height="132" as="geometry"/>
                </mxCell>
                <mxCell id="167" style="edgeStyle=none;html=1;strokeColor=#9999FF;fontSize=10;" parent="1" source="158" edge="1">
                    <mxGeometry relative="1" as="geometry">
                        <mxPoint x="-308" y="1782" as="targetPoint"/>
                        <Array as="points">
                            <mxPoint x="33" y="1782"/>
                        </Array>
                    </mxGeometry>
                </mxCell>
                <mxCell id="158" value="&lt;p style=&quot;color: rgb(255, 255, 255); font-family: &amp;quot;YAD7Qybjw1I 0&amp;quot;, _fb_, auto; --font-size: 9.33358px; --line-height: 1.4; line-height: 13px; font-size: 11px;&quot; class=&quot;_04xlpA direction-ltr align-center para-style-body&quot;&gt;&lt;span style=&quot;background-color: rgb(0, 0, 0); font-size: 11px;&quot; class=&quot;WdYUQQ&quot;&gt;&lt;font style=&quot;font-size: 11px;&quot;&gt;&lt;br style=&quot;font-size: 11px;&quot;&gt;&lt;/font&gt;&lt;/span&gt;&lt;/p&gt;&lt;p style=&quot;color: rgb(255, 255, 255); font-family: &amp;quot;YAD7Qybjw1I 0&amp;quot;, _fb_, auto; --font-size: 9.33358px; --line-height: 1.4; line-height: 13px; font-size: 11px;&quot; class=&quot;_04xlpA direction-ltr align-center para-style-body&quot;&gt;&lt;span style=&quot;background-color: rgb(0, 0, 0); font-size: 11px;&quot;&gt;{&lt;/span&gt;&lt;br style=&quot;font-size: 11px;&quot;&gt;&lt;/p&gt;&lt;p style=&quot;color: rgb(255, 255, 255); font-family: &amp;quot;YAD7Qybjw1I 0&amp;quot;, _fb_, auto; --font-size: 9.33358px; --line-height: 1.4; line-height: 13px; font-size: 11px;&quot; class=&quot;_04xlpA direction-ltr align-center para-style-body&quot;&gt;&lt;font style=&quot;font-size: 11px; background-color: rgb(0, 0, 0);&quot;&gt;&lt;span class=&quot;WdYUQQ&quot; style=&quot;font-size: 11px;&quot;&gt;href:&lt;/span&gt;&lt;/font&gt;&lt;/p&gt;&lt;p style=&quot;color: rgb(255, 255, 255); font-family: &amp;quot;YAD7Qybjw1I 0&amp;quot;, _fb_, auto; --font-size: 9.33358px; --line-height: 1.4; line-height: 13px; font-size: 11px;&quot; class=&quot;_04xlpA direction-ltr align-center para-style-body&quot;&gt;&lt;span style=&quot;background-color: rgb(0, 0, 0); font-size: 11px;&quot;&gt;text:&lt;/span&gt;&lt;/p&gt;&lt;p style=&quot;color: rgb(255, 255, 255); font-family: &amp;quot;YAD7Qybjw1I 0&amp;quot;, _fb_, auto; --font-size: 9.33358px; --line-height: 1.4; line-height: 13px; font-size: 11px;&quot; class=&quot;_04xlpA direction-ltr align-center para-style-body&quot;&gt;&lt;font style=&quot;font-size: 11px; background-color: rgb(0, 0, 0);&quot;&gt;&lt;span class=&quot;WdYUQQ&quot; style=&quot;font-size: 11px;&quot;&gt;file:&lt;/span&gt;&lt;span class=&quot;WdYUQQ white-space-prewrap&quot; style=&quot;font-size: 11px;&quot;&gt; &lt;/span&gt;&lt;/font&gt;&lt;/p&gt;&lt;p style=&quot;color: rgb(255, 255, 255); font-family: &amp;quot;YAD7Qybjw1I 0&amp;quot;, _fb_, auto; --font-size: 9.33358px; --line-height: 1.4; line-height: 13px; font-size: 11px;&quot; class=&quot;_04xlpA direction-ltr align-center para-style-body&quot;&gt;&lt;span style=&quot;background-color: rgb(0, 0, 0); font-size: 11px;&quot; class=&quot;WdYUQQ&quot;&gt;&lt;font style=&quot;font-size: 11px;&quot;&gt;status:&lt;/font&gt;&lt;/span&gt;&lt;/p&gt;&lt;p style=&quot;color: rgb(255, 255, 255); font-family: &amp;quot;YAD7Qybjw1I 0&amp;quot;, _fb_, auto; --font-size: 9.33358px; --line-height: 1.4; line-height: 13px; font-size: 11px;&quot; class=&quot;_04xlpA direction-ltr align-center para-style-body&quot;&gt;&lt;font style=&quot;font-size: 11px; background-color: rgb(0, 0, 0);&quot;&gt;&lt;span class=&quot;WdYUQQ&quot; style=&quot;font-size: 11px;&quot;&gt;ok:&lt;/span&gt;&lt;span class=&quot;WdYUQQ white-space-prewrap&quot; style=&quot;font-size: 11px;&quot;&gt; &lt;/span&gt;&lt;/font&gt;&lt;/p&gt;&lt;p style=&quot;color: rgb(255, 255, 255); font-family: &amp;quot;YAD7Qybjw1I 0&amp;quot;, _fb_, auto; --font-size: 9.33358px; --line-height: 1.4; line-height: 13px; font-size: 11px;&quot; class=&quot;_04xlpA direction-ltr align-center para-style-body&quot;&gt;&lt;span style=&quot;background-color: rgb(0, 0, 0); font-size: 11px;&quot; class=&quot;WdYUQQ&quot;&gt;&lt;font style=&quot;font-size: 11px;&quot;&gt;}&lt;/font&gt;&lt;/span&gt;&lt;/p&gt;" style="shape=document;html=1;boundedLbl=1;fontSize=11;fillColor=#e6d0de;strokeColor=#996185;gradientColor=#d5739d;align=center;verticalAlign=middle;horizontal=1;spacing=0;whiteSpace=wrap;" parent="1" vertex="1">
                    <mxGeometry x="-99" y="1468.5" width="264" height="187" as="geometry"/>
                </mxCell>
                <mxCell id="164" value="" style="edgeStyle=none;html=1;strokeColor=#9999FF;fontSize=10;" parent="1" source="160" target="162" edge="1">
                    <mxGeometry relative="1" as="geometry"/>
                </mxCell>
                <mxCell id="160" value="&lt;p style=&quot;color: rgb(255, 255, 255); font-family: &amp;quot;YAD7Qybjw1I 0&amp;quot;, _fb_, auto; --font-size: 9.33358px; --line-height: 1.4; line-height: 13px;&quot; class=&quot;_04xlpA direction-ltr align-center para-style-body&quot;&gt;&lt;span style=&quot;background-color: rgb(0, 0, 0);&quot; class=&quot;WdYUQQ&quot;&gt;{&lt;/span&gt;&lt;/p&gt;&lt;p style=&quot;color: rgb(255, 255, 255); font-family: &amp;quot;YAD7Qybjw1I 0&amp;quot;, _fb_, auto; --font-size: 9.33358px; --line-height: 1.4; line-height: 13px;&quot; class=&quot;_04xlpA direction-ltr align-center para-style-body&quot;&gt;&lt;span style=&quot;background-color: rgb(0, 0, 0);&quot;&gt;&lt;span class=&quot;WdYUQQ&quot;&gt;href:&lt;/span&gt;&lt;span class=&quot;WdYUQQ white-space-prewrap&quot;&gt; &lt;/span&gt;&lt;/span&gt;&lt;/p&gt;&lt;p style=&quot;color: rgb(255, 255, 255); font-family: &amp;quot;YAD7Qybjw1I 0&amp;quot;, _fb_, auto; --font-size: 9.33358px; --line-height: 1.4; line-height: 13px;&quot; class=&quot;_04xlpA direction-ltr align-center para-style-body&quot;&gt;&lt;span style=&quot;background-color: rgb(0, 0, 0);&quot; class=&quot;WdYUQQ&quot;&gt;text:&lt;/span&gt;&lt;/p&gt;&lt;p style=&quot;color: rgb(255, 255, 255); font-family: &amp;quot;YAD7Qybjw1I 0&amp;quot;, _fb_, auto; --font-size: 9.33358px; --line-height: 1.4; line-height: 13px;&quot; class=&quot;_04xlpA direction-ltr align-center para-style-body&quot;&gt;&lt;span style=&quot;background-color: rgb(0, 0, 0);&quot;&gt;&lt;span class=&quot;WdYUQQ&quot;&gt;file:&lt;/span&gt;&lt;span class=&quot;WdYUQQ white-space-prewrap&quot;&gt; &lt;/span&gt;&lt;/span&gt;&lt;/p&gt;&lt;p style=&quot;color: rgb(255, 255, 255); font-family: &amp;quot;YAD7Qybjw1I 0&amp;quot;, _fb_, auto; --font-size: 9.33358px; --line-height: 1.4; line-height: 13px;&quot; class=&quot;_04xlpA direction-ltr align-center para-style-body&quot;&gt;&lt;span style=&quot;font-size: 10px; background-color: rgb(0, 0, 0);&quot; class=&quot;WdYUQQ&quot;&gt;}&lt;/span&gt;&lt;/p&gt;" style="shape=document;whiteSpace=wrap;html=1;boundedLbl=1;fontSize=14;fillColor=#e6d0de;strokeColor=#996185;gradientColor=#d5739d;" parent="1" vertex="1">
                    <mxGeometry x="-719.36" y="1474" width="201.37" height="176" as="geometry"/>
                </mxCell>
                <mxCell id="162" value="END" style="strokeWidth=2;html=1;shape=mxgraph.flowchart.terminator;whiteSpace=wrap;labelBackgroundColor=#000000;fontSize=10;fillColor=#fad9d5;strokeColor=#ae4132;" parent="1" vertex="1">
                    <mxGeometry x="-668.67" y="1754" width="100" height="60" as="geometry"/>
                </mxCell>
            </root>
        </mxGraphModel>
    </diagram>
</mxfile>